<svg width="26" height="26" viewBox="0 0 26 26" fill="none" xmlns="http://www.w3.org/2000/svg">
<path d="M13 15.6667V19.6667M13 15.6667C9.77472 15.6667 7.08439 13.3763 6.46669 10.3333M13 15.6667C16.2253 15.6667 18.9156 13.3763 19.5333 10.3333M13 19.6667C14.24 19.6667 14.86 19.6667 15.3687 19.8029C16.7489 20.1728 17.8272 21.2511 18.1971 22.6313C18.3333 23.14 18.3333 23.76 18.3333 25H7.66667C7.66667 23.76 7.66667 23.14 7.80296 22.6313C8.17283 21.2511 9.25103 20.1728 10.6313 19.8029C11.14 19.6667 11.76 19.6667 13 19.6667ZM6.46669 10.3333H6.33333H6C5.07069 10.3333 4.60604 10.3333 4.21964 10.2565C2.63288 9.94085 1.39248 8.70045 1.07685 7.11369C1 6.72729 1 6.26264 1 5.33333C1 5.02356 1 4.86868 1.02561 4.73988C1.13083 4.21096 1.54429 3.79749 2.07321 3.69228C2.20201 3.66667 2.35689 3.66667 2.66667 3.66667H6.33333M6.46669 10.3333C6.37924 9.90252 6.33333 9.45663 6.33333 9V3.09524C6.33333 2.38441 6.33333 2.02901 6.46537 1.75483C6.59643 1.48268 6.81601 1.26309 7.08816 1.13204C7.36235 1 7.71775 1 8.42857 1H17.5715C18.2823 1 18.6376 1 18.9119 1.13204C19.184 1.26309 19.4036 1.48268 19.5347 1.75483C19.6667 2.02901 19.6667 2.38441 19.6667 3.09524V9C19.6667 9.45663 19.6208 9.90252 19.5333 10.3333M19.5333 10.3333H19.6667H20C20.9293 10.3333 21.394 10.3333 21.7804 10.2565C23.3671 9.94085 24.6075 8.70045 24.9232 7.11369C25 6.72729 25 6.26264 25 5.33333C25 5.02356 25 4.86868 24.9744 4.73988C24.8692 4.21096 24.4557 3.79749 23.9268 3.69228C23.798 3.66667 23.6431 3.66667 23.3333 3.66667H19.6667" stroke="#969696" stroke-width="2" stroke-linecap="round" stroke-linejoin="round"/>
</svg>
